<svg id="Layer_1" data-name="Layer 1" xmlns="http://www.w3.org/2000/svg" viewBox="0 0 293.9 293.9"><defs><style>.cls-1{fill:none;stroke:#ff5f64;stroke-miterlimit:10;stroke-width:8px;}.cls-2{fill:#ff5f64;}</style></defs><circle class="cls-1" cx="146.95" cy="146.95" r="142.95"/><path class="cls-2" d="M37.38,66.52a1.11,1.11,0,0,0,.9,1.29l.71.13,1,.17c2.73.48,5.47,1,8.2,1.46a7.74,7.74,0,0,1,1.57.42A3.31,3.31,0,0,1,52,73.58a20,20,0,0,1-.3,2.18L37.45,156.31q-3.08,17.46-6.16,34.9c-.11.6-.22,1.2-.37,1.78a3.69,3.69,0,0,1-4.44,3c-.32,0-.63-.1-.95-.15l-7.92-1.4-1-.18-.6-.1a1.11,1.11,0,0,0-1.28.88c-.17.88-.27,1.33-.5,2.65l11.59,24.83-.07.54,46.34,8.2,170.83,30.21,17.88-24.11c-.69-.07-1.35-.1-2-.22-2.86-.49-5.73-1-8.58-1.52s-4.07-2.13-3.59-5.1c.05-.32.11-.63.16-.95Q257,171.9,267.19,114.26a14,14,0,0,1,.49-2.22,3.65,3.65,0,0,1,3.67-2.39,19.48,19.48,0,0,1,3.5.55,68.83,68.83,0,0,0,9.27,1.37l-4.5-29.73C240.66,75,205,68.53,166,61.64L55.25,42.05Zm211.43,189a8.56,8.56,0,0,1-1.71-.49,3.55,3.55,0,0,1-2.25-3.18,7.61,7.61,0,0,1,.06-1.43c.24-1.48.48-3,.79-4.43a6.45,6.45,0,0,1,.74-2,3.28,3.28,0,0,1,2.8-1.59,8,8,0,0,1,1.62.08c2.67.45,5.34.93,8,1.41.21,0,.42.11.72.2ZM206.87,81.57a6.81,6.81,0,0,1,.85-2.21,3.22,3.22,0,0,1,2.87-1.45,11,11,0,0,1,1.9.16q7.6,1.32,15.18,2.68a10.65,10.65,0,0,1,1.59.43,3.68,3.68,0,0,1,2.45,3.64,21.72,21.72,0,0,1-.38,2.67c-.19,1.1-.37,2.21-.63,3.29a3.66,3.66,0,0,1-4.09,3.08c-.45,0-.89-.08-1.33-.15l-7.55-1.33c-2.51-.45-5-.88-7.54-1.35a9.82,9.82,0,0,1-1.84-.5,3.67,3.67,0,0,1-2.32-3.4,8.28,8.28,0,0,1,.09-1.41C206.34,84.33,206.55,82.94,206.87,81.57ZM173.7,74.45A3.31,3.31,0,0,1,177,71.9a7.94,7.94,0,0,1,1.61.12q7.92,1.38,15.84,2.8a8.66,8.66,0,0,1,1.65.48,3.26,3.26,0,0,1,2.11,3.14,4.13,4.13,0,0,1,0,.86c-.35,1.91-.59,3.85-1.09,5.72-.58,2.2-2.09,3.11-4.35,2.78s-4.65-.8-7-1.21l-2.88-.5c-2.36-.39-4.74-.75-7.07-1.27l-.5-.13a3.43,3.43,0,0,1-2.76-3.84A51.65,51.65,0,0,1,173.7,74.45Zm-33-5.26a3.89,3.89,0,0,1,3.83-3,9.65,9.65,0,0,1,1.61.16c2.52.43,5,.88,7.55,1.32L161.19,69a9.49,9.49,0,0,1,1.48.39,3.34,3.34,0,0,1,2.6,3.84,50.93,50.93,0,0,1-1.09,6.12,3.49,3.49,0,0,1-3.92,2.77c-.42,0-.83,0-1.24-.12q-7.68-1.35-15.37-2.72a9.74,9.74,0,0,1-1.91-.56,3.55,3.55,0,0,1-2.13-3.16,2.61,2.61,0,0,1,0-.56C140,73.05,140.21,71.1,140.66,69.19ZM107,62.8a3.61,3.61,0,0,1,4.17-2.7c.32,0,.63.08.95.14q7.82,1.38,15.65,2.78a8.32,8.32,0,0,1,2,.63,3.06,3.06,0,0,1,1.73,2.46,6.27,6.27,0,0,1,0,1.62c-.27,1.67-.55,3.34-.89,5a3.86,3.86,0,0,1-2.22,3,4.3,4.3,0,0,1-2.53.21c-2.3-.39-4.59-.8-6.89-1.21l-1.32-.23c-2.6-.46-5.22-.91-7.82-1.39a9.6,9.6,0,0,1-1.83-.53,3.26,3.26,0,0,1-2.11-3.23,8.16,8.16,0,0,1,.13-1.71C106.28,66.05,106.57,64.41,107,62.8ZM73.5,56.7a3.37,3.37,0,0,1,3.15-2.64,18.27,18.27,0,0,1,3.29.34c2.2.37,4.4.77,6.6,1.16v0c2.64.47,5.29.91,7.92,1.42a8.63,8.63,0,0,1,1.89.65,3.17,3.17,0,0,1,1.75,2.78A6.64,6.64,0,0,1,98,62.15c-.24,1.54-.47,3.09-.83,4.61-.28,1.17-.63,2.37-1.89,2.95a5.77,5.77,0,0,1-2.91.3c-.26,0-.51-.08-.76-.12L76.53,67.21a10.14,10.14,0,0,1-2-.58A3.49,3.49,0,0,1,72.39,63,56,56,0,0,1,73.5,56.7Zm-21.07-7,9.09,1.61a5.59,5.59,0,0,1,.56.12,4.09,4.09,0,0,1,3,4.5c-.24,1.77-.61,3.52-.93,5.28a3.88,3.88,0,0,1-.28.81,3.76,3.76,0,0,1-3.74,2.3c-.87-.08-1.74-.25-2.6-.4l-6.42-1.14h0l-7.59-1.34a9,9,0,0,1-1.78-.5ZM14.89,203a2.17,2.17,0,0,1,2-1.82,6.45,6.45,0,0,1,1.52.11q8,1.38,15.95,2.81c3,.54,4.09,2.1,3.6,5.09-.23,1.41-.49,2.83-.76,4.24a7,7,0,0,1-.39,1.37,3.46,3.46,0,0,1-3.77,2.33c-.48,0-.95-.12-1.42-.2l-7.55-1.33ZM70.46,217.7a16.33,16.33,0,0,1-.67,2.78,3.46,3.46,0,0,1-3.64,2.39,12.38,12.38,0,0,1-1.61-.17c-2.52-.43-5-.88-7.55-1.33s-5-.87-7.45-1.32a12,12,0,0,1-1.57-.4,3.39,3.39,0,0,1-2.61-3.84,54.71,54.71,0,0,1,1.1-6.22,3.39,3.39,0,0,1,3.62-2.67,9.63,9.63,0,0,1,1.61.13q7.61,1.33,15.19,2.69a9.84,9.84,0,0,1,1.75.47A3.55,3.55,0,0,1,71,213.77,34.67,34.67,0,0,1,70.46,217.7Zm33.08,7.91a3.87,3.87,0,0,1-2.16,3,4.32,4.32,0,0,1-2.63.22c-1.83-.3-3.65-.63-5.47-.95l-2.73-.49c-2.58-.45-5.16-.9-7.73-1.38a9.61,9.61,0,0,1-1.92-.55,3.24,3.24,0,0,1-2.07-3.07,7.38,7.38,0,0,1,.09-1.62c.21-1.38.46-2.77.73-4.15a5,5,0,0,1,1-2.44,3.69,3.69,0,0,1,3.18-1.23,11.26,11.26,0,0,1,1.42.19c5.1.9,10.19,1.79,15.28,2.71a9.09,9.09,0,0,1,2,.58,3.28,3.28,0,0,1,1.94,2.68,5.26,5.26,0,0,1,0,1.43C104.17,222.22,103.88,223.92,103.54,225.61Zm33.6,6.59A3.49,3.49,0,0,1,133.2,235c-.47,0-.95-.08-1.42-.16-2.52-.43-5-.88-7.54-1.33s-5-.88-7.55-1.34a10.21,10.21,0,0,1-1.87-.53,3.59,3.59,0,0,1-2.24-3.21,2.7,2.7,0,0,1,0-.57c.37-2.07.63-4.17,1.15-6.2a3.33,3.33,0,0,1,3.65-2.61,12.38,12.38,0,0,1,1.71.17q7.55,1.32,15.08,2.67a10.71,10.71,0,0,1,1.48.38,3.85,3.85,0,0,1,2.54,4.07A45.75,45.75,0,0,1,137.14,232.2Zm32.94,5.66a3.71,3.71,0,0,1-3.6,2.85,13.93,13.93,0,0,1-1.82-.23l-7.45-1.32-7.54-1.34a10.88,10.88,0,0,1-1.4-.3,3.43,3.43,0,0,1-2.73-3.86,54.1,54.1,0,0,1,1.11-6.31,3.36,3.36,0,0,1,3.37-2.61,7,7,0,0,1,1.52.1c5.38.94,10.75,1.88,16.12,2.86,2.65.48,3.75,1.82,3.48,4.47A39.31,39.31,0,0,1,170.08,237.86Zm33.48,6.07a3.49,3.49,0,0,1-3.93,2.77c-.47,0-.95-.08-1.42-.16l-7.45-1.31c-2.55-.45-5.1-.89-7.64-1.36a10.1,10.1,0,0,1-1.93-.55,3.6,3.6,0,0,1-2.2-3.19,2.72,2.72,0,0,1,0-.57c.37-2.07.63-4.16,1.15-6.19.47-1.85,1.8-2.66,3.74-2.62a12.36,12.36,0,0,1,1.61.16q7.55,1.32,15.09,2.67a9.49,9.49,0,0,1,1.48.39c1.85.63,2.78,1.82,2.58,3.75A46.64,46.64,0,0,1,203.56,243.93Zm32.91,5.83c-.58,2.25-2.1,3.16-4.42,2.8-2.83-.44-5.66-1-8.48-1.48h0l-7.44-1.32a5.23,5.23,0,0,1-3.37-1.48,3.7,3.7,0,0,1-.82-2.87,60.3,60.3,0,0,1,1-6,3.41,3.41,0,0,1,3.45-2.77,7.89,7.89,0,0,1,1.61.13q7.88,1.38,15.75,2.79a8.63,8.63,0,0,1,1.65.47,3.27,3.27,0,0,1,2.14,3.21,3.75,3.75,0,0,1,0,.58C237.21,245.82,237,247.83,236.47,249.76Zm21-138.29q-10.29,58.2-20.59,116.41c-.26,1.47-.54,3-2.58,3.8a4.12,4.12,0,0,1-2.09.26c-.52-.06-1-.16-1.54-.25l-92.45-16.35L46,199c-.57-.1-1.14-.2-1.7-.32-2.5-.53-3.62-2.1-3.32-4.64,0-.35.11-.69.17-1q10.26-58,20.51-115.94a11.53,11.53,0,0,1,.51-1.94,3.27,3.27,0,0,1,3.11-2.29,13.3,13.3,0,0,1,2.66.24q19.11,3.36,38.2,6.75l142.45,25.19c1.73.31,3.46.61,5.19.93a9.27,9.27,0,0,1,1.37.38,3.38,3.38,0,0,1,2.44,3.69A11.48,11.48,0,0,1,257.44,111.47Zm6-14.47a3.45,3.45,0,0,1-4.29,2.73c-2.87-.44-5.72-1-8.58-1.5v0l-7.54-1.33a13.09,13.09,0,0,1-1.41-.31A3.44,3.44,0,0,1,239,92.74,54.63,54.63,0,0,1,240,86.65a3.53,3.53,0,0,1,2.87-2.76,7.19,7.19,0,0,1,2.17.07q7.88,1.38,15.75,2.79a8,8,0,0,1,1.65.47,3.29,3.29,0,0,1,2.15,3.29,3.72,3.72,0,0,1,0,.67C264.23,93.13,264,95.1,263.48,97Zm20.88,7c-.84-.1-1.65-.18-2.46-.31-2-.34-4-.69-6-1.07a10.92,10.92,0,0,1-1.67-.47,3.64,3.64,0,0,1-2.33-3.26,3.72,3.72,0,0,1,0-.58c.37-2.06.64-4.14,1.15-6.17a3.55,3.55,0,0,1,3.49-2.62,7.74,7.74,0,0,1,1.92.2Z" transform="translate(-3.05 -3.05)"/><path class="cls-2" d="M88.09,127.48c.58-2.7.93-5.12,1.63-7.43a19.86,19.86,0,0,1,6.55-9.92,16,16,0,0,1,5.62-2.8,35.74,35.74,0,0,1,6.39-1.17c3.49-.4,7-.83,10.47-1.08,4.77-.34,9.55-.65,14.33-.76,5.2-.13,10.4,0,15.6,0,3.67,0,7.34.13,11,.29q6.12.27,12.23.69c4.46.31,8.91.68,13.36,1.06,2.8.24,5.59.6,8.39.79a23.23,23.23,0,0,1,7.14,1.71,29.72,29.72,0,0,1,8.28,5.09,9.71,9.71,0,0,1,2.7,4,38.58,38.58,0,0,1,2.42,9.92c.29,3,.49,5.91.64,8.87.19,3.67.37,7.34.38,11,0,5.08,0,10.16-.31,15.22-.25,4.49-.89,9-1.36,13.43-.07.76-.13,1.52-.2,2.28a13.57,13.57,0,0,1-.14,1.43c-.92,4.51-2.95,8.27-7.07,10.66a47,47,0,0,1-5.67,3,22.17,22.17,0,0,1-7.17,1.53c-6.38.43-12.76.33-19.14.48-4.6.1-9.19.3-13.78.42-7.5.18-15,.11-22.5-.26-6.82-.34-13.64-.72-20.43-1.45l-9.62-1.06c-2.28-.25-4.57-.45-6.84-.8a10.42,10.42,0,0,1-2.78-1,13.82,13.82,0,0,1-5.17-4.18c-.84-1.12-1.68-2.24-2.46-3.41A11.53,11.53,0,0,1,89,180.19a94.9,94.9,0,0,1-2.14-12.74A177.77,177.77,0,0,1,86.31,149c.11-4.83.49-9.63,1-14.42C87.56,132.09,87.85,129.62,88.09,127.48Zm50.32,40.43c10.82-5.76,21.58-11.35,32.27-17.18-.15-.17-.2-.27-.28-.31l-31-18.13a4.07,4.07,0,0,0-.44-.18.17.17,0,0,0-.1,0l-.08.06C138.6,133,138.2,166.09,138.41,167.91Z" transform="translate(-3.05 -3.05)"/></svg>