<svg id="Layer_1" data-name="Layer 1" xmlns="http://www.w3.org/2000/svg" viewBox="0 0 292.9 292.9"><defs><style>.cls-1{fill:none;stroke:#e075e3;stroke-miterlimit:10;stroke-width:7px;}.cls-2{fill:#e075e3;}</style></defs><circle class="cls-1" cx="146.45" cy="146.45" r="142.95"/><path class="cls-2" d="M131.75,109.64A11.92,11.92,0,0,1,134,107.2a12.92,12.92,0,0,1,7.09-2.79l-2.21,1.39a11.73,11.73,0,0,1,2.39-.4,11.52,11.52,0,0,1,3,.17,13.1,13.1,0,0,0-3.78,1.28,13.27,13.27,0,0,0-2.85,2,3.11,3.11,0,0,1,.52-1.34,3.14,3.14,0,0,1,.88-.82,14.68,14.68,0,0,0-7.33,3Z" transform="translate(-3.55 -3.55)"/><path class="cls-2" d="M144.08,113.53a8,8,0,0,1,.93,2.56,7.65,7.65,0,0,1-.18,3.32,2.46,2.46,0,0,1,.82.11,2.58,2.58,0,0,1,.93.53,6.14,6.14,0,0,0,.11-2.21A6.77,6.77,0,0,0,144.08,113.53Z" transform="translate(-3.55 -3.55)"/><path class="cls-2" d="M147.39,117.26a4.5,4.5,0,0,1,.41,2,4.45,4.45,0,0,1-.53,2,6,6,0,0,1,1.52.81,6.3,6.3,0,0,1,2.15,3.08,9.29,9.29,0,0,0-.93-4.65A9.2,9.2,0,0,0,147.39,117.26Z" transform="translate(-3.55 -3.55)"/><path class="cls-2" d="M154.37,103.3a17.11,17.11,0,0,0-3.32.93,15.11,15.11,0,0,0-1.39.64,25.44,25.44,0,0,1,2.67-.06,23.49,23.49,0,0,1,4.6.64c-.22-.2-.46-.47-.41-.75.11-.7,1.85-.94,2.62-1a15.63,15.63,0,0,1,6,.41,18,18,0,0,0-12.5-1.34Z" transform="translate(-3.55 -3.55)"/><path class="cls-2" d="M190.19,286.49c-1-.66-2.31-1.55-3.79-2.68l-.63.25.84,4.93c2-.46,4-1,6-1.5A5.48,5.48,0,0,1,190.19,286.49Z" transform="translate(-3.55 -3.55)"/><path class="cls-2" d="M105.53,285.7l.07-.36a4.14,4.14,0,0,1-.43.24Z" transform="translate(-3.55 -3.55)"/><path class="cls-2" d="M103.7,157.13a75.37,75.37,0,0,1,7.13-15.39c.42-.68,2.14-3.17,4.51-6.36a53,53,0,0,1,7.79-8.21,20.6,20.6,0,0,1,5.4-3.57,15.07,15.07,0,0,1,4.4-1.35c-.4-1.54-.85-3-1.31-4.22a14.71,14.71,0,0,0-4.15-.9,24.12,24.12,0,0,0-4.38.3,6.26,6.26,0,0,0-2.64.72,5.37,5.37,0,0,0-1.45,1.19,10.14,10.14,0,0,1,10.13-7,41.74,41.74,0,0,0-5.29-7.92,37.3,37.3,0,0,0-6.22-5.69,21.37,21.37,0,0,0-7.21-3.9,25.15,25.15,0,0,0-4.59-.7c-4.84-.48-7.15.08-8,.29a16.92,16.92,0,0,0-2,.7,5.24,5.24,0,0,0-.52-1,4.93,4.93,0,0,0-1.57-1.52,4.12,4.12,0,0,0-1-.4,27.44,27.44,0,0,0-10.29-.76c-.06,0-1.14.17-2.15.41a52,52,0,0,0-27.62,17.09,46.92,46.92,0,0,0-6.8,13,54.88,54.88,0,0,0-3.08,14c-.78,7.61.23,11.8.52,12.91a28,28,0,0,0,1,3.25c0-.69,0-1.43.05-2.21a25.48,25.48,0,0,1,.93-5.23,9.2,9.2,0,0,1,.7,1.51,9.77,9.77,0,0,1,.47,4.31c-.59,6.15.26,2.63-.82,10.69-.85,6.36-1.35,8.36-1.28,11.23,0,.39.06,1.77.06,3.72,0,1.63,0,3-.06,3.78a7.11,7.11,0,0,0-1.33,3.66,9.09,9.09,0,0,0,.17,2s.16,1.08.35,4.82a37.28,37.28,0,0,1-.64,8,52.66,52.66,0,0,1-2.17,8.64A11.29,11.29,0,0,0,39.21,209c-.26.46-.69,1.23-.46,1.46a.43.43,0,0,0,.4,0,11.79,11.79,0,0,0-2.94,4.5c-1.42,4-.15,7.9.77,10.7,1.16,3.53,2.06,3.86,3,7.29a24.28,24.28,0,0,1,.77,6.35c1.34,2.16,21.58,29.86,59.87,44.58,0-.13.05-.26.09-.4a9.84,9.84,0,0,1,2.25-4.13,19.32,19.32,0,0,1-6.51-9.61,14.85,14.85,0,0,1-.42-5.32c.83-8.86,2-15.36,2-15.36,1-5.76,1.53-8.86,2.38-13a60.16,60.16,0,0,1,2.17-8c.14-.39.41-1.16.81-2.17,3-7.53,6-11.22,6.55-13a3.06,3.06,0,0,1,.68-1.24,2.78,2.78,0,0,1,.81-.59c.79-.41,2.59-1.25,5-2.3a10.4,10.4,0,0,1-2.21-.89,14.14,14.14,0,0,1-3.32-2.73c-1.32-1.3-2.44-2.43-3.32-3.32a5.56,5.56,0,0,1-2.13.05,6.54,6.54,0,0,1-2.85-1.41,15.65,15.65,0,0,1-3.15-3.23c-.33-.42-.59-.78-.76-1a3.36,3.36,0,0,1,1.19-.81c.74-.3,1.53-.19,3.1,0a5.15,5.15,0,0,1,1.71.51,1.87,1.87,0,0,1,.76.64,1.78,1.78,0,0,1,.26.68,18.67,18.67,0,0,1,1.66-1.11,22.41,22.41,0,0,1,5.53-2.17c.78-.22,1.86-.5,3.15-.76a33.55,33.55,0,0,1-.72-4.94c-.3-4,.52-6.64.17-6.72s-1.33,2-1.62,4.34c-.34,2.7.63,4.7.42,4.76s-1.15-1.74-1.7-4a16.61,16.61,0,0,1-.25-6.29,9.25,9.25,0,0,0-1.54,3,9.52,9.52,0,0,0,0,5.27,10.57,10.57,0,0,1-1.7-3.23,11.21,11.21,0,0,1,.43-7.58,8.39,8.39,0,0,0-3.41,6.9A22.13,22.13,0,0,1,107.3,176c1-2.61,2.28-4,2.89-5.89a11.36,11.36,0,0,0-5.28,6.56l.18-3.41a6.84,6.84,0,0,0-1.71,2.73,7.06,7.06,0,0,0-.34,1.95,12.3,12.3,0,0,1-.25-3.83,11.07,11.07,0,0,1,.34-1.95,11.88,11.88,0,0,0-2,7.23,21.14,21.14,0,0,1-1.11-4.08C99.7,173.61,99.19,169.43,103.7,157.13Z" transform="translate(-3.55 -3.55)"/><path class="cls-2" d="M263.58,220.34a114,114,0,0,0-3.73-18A88,88,0,0,0,253.19,185c-.16-.29-1.6-3-4.5-8.53s-3.57-6.78-4.11-9a37.37,37.37,0,0,1-.85-8.22c0-1.8.06-3.31.16-4.42.28.55.56,1.09.85,1.63.12-.82.25-1.64.39-2.48q.26-1.6.54-3.18a49,49,0,0,0,.7-16.12A36.73,36.73,0,0,0,242,120.41a33.09,33.09,0,0,0-2.24-3.44,6.07,6.07,0,0,1,2.58-2.39,2.44,2.44,0,0,0,.82-.49c.37-.35.77-1,.58-1.34-.1-.21-.29-.15-.47-.41a1,1,0,0,1,0-1c.24-.35.75-.32,1.27-.3a4.05,4.05,0,0,1,1.63.44,36.24,36.24,0,0,1,4.74-14.19,60.91,60.91,0,0,1-6.45,7c-1.27,1.17-2.51,2.22-3.72,3.17.09,0,.85.3,1,.87.14.76-1,1.35-1.17,1.46a2.19,2.19,0,0,1-1.68.23,2.13,2.13,0,0,1-.88-.58,1.83,1.83,0,0,1-.17-1,1.91,1.91,0,0,1,1.74-1.57,1.87,1.87,0,0,1,1.11.29,36.31,36.31,0,0,1,.23-5.35,43.09,43.09,0,0,1,2.33-9.3c.67-2,1.32-3.55,1.8-4.65-3.91,5.49-6.61,9.44-7.85,11.68a13.36,13.36,0,0,1-3.37,4.13,12.11,12.11,0,0,1-1.34.93,1.47,1.47,0,0,1,1.34.93,1.45,1.45,0,0,1-.12,1.16,15.37,15.37,0,0,1-1.63-1c-.74-.56-.84-.75-.87-.93-.08-.64.79-1.21,1-1.34a2.85,2.85,0,0,1,1.63-.46,31.73,31.73,0,0,1-1.34-6.63,31.05,31.05,0,0,1,.18-7.33,35.69,35.69,0,0,1-4.42,10.58c-.44.7-.89,1.36-1.34,2a1.72,1.72,0,0,1,1.63,1.1,1.64,1.64,0,0,1-.12,1.23,2,2,0,0,0-1.1-.06,1.93,1.93,0,0,0-.7.29,30.33,30.33,0,0,0-4.07-2.15,32,32,0,0,0-8.43-2.27,32.41,32.41,0,0,0-9,.06c-1.2.18-2.2.4-2.91.58a24,24,0,0,0-9.83-1.63,26.47,26.47,0,0,0-11.39,3.43,33.4,33.4,0,0,0-6.34,4.3,12.45,12.45,0,0,0-4.82-1,11.44,11.44,0,0,0-2.68.29,20.14,20.14,0,0,1,4,.93,19.39,19.39,0,0,1,2.16.87L171,109.58a57.13,57.13,0,0,0-7.27-2.15,45.55,45.55,0,0,0-12-1.34,53.09,53.09,0,0,0-7,.82,17.67,17.67,0,0,0-3.2.75,16.7,16.7,0,0,0-2.91,1.34,20.84,20.84,0,0,1,8.49,4,20.4,20.4,0,0,1,6.31,8.45,20.05,20.05,0,0,1,6-1.44,24.74,24.74,0,0,1,9.57.85A27,27,0,0,1,179,126.74a39.74,39.74,0,0,1,9.15,11.32,46.42,46.42,0,0,1,4.55,11c.47,1.82,1.14,4.93,1.62,7.4.52,2.65.61,3.49,1.11,5.57s.87,3.32,1.7,6c1,3.24,1.6,5.22,2.59,7.92a58.8,58.8,0,0,0,2.9,6.93A43.43,43.43,0,0,0,206.4,189a12.49,12.49,0,0,1-1.66-1.15,13.33,13.33,0,0,1-3.61-4.68,22.84,22.84,0,0,0,1.32,3.49,23.23,23.23,0,0,0,2.42,4,21.94,21.94,0,0,1-5.53-6.46c.35,1.42.8,3,1.36,4.59s1.18,3.13,1.79,4.47l-2.64-4.08-1.36-2.13a33.25,33.25,0,0,0,.68,3.32c.43,1.66.8,2.53,1.28,4.51.2.85.34,1.55.42,2a19.84,19.84,0,0,1-1.78-2.13,20.9,20.9,0,0,1-1.83-3.06c-.74-1.42-1.65-3.24-2.69-5.41-.3.77-.65,1.58-1.06,2.43a34.23,34.23,0,0,1-1.87,3.32,6.46,6.46,0,0,1,1.53,0,6.33,6.33,0,0,1,1.57.38,5.06,5.06,0,0,1,0,2.08,4.84,4.84,0,0,1-.47,1.28,15.23,15.23,0,0,1-2.68,3.66,10.24,10.24,0,0,1-3,2.55,6.9,6.9,0,0,1-1.23.51,5.3,5.3,0,0,1,.17,1.49,7.1,7.1,0,0,1-.73,2.64,25.38,25.38,0,0,1-1.31,2.73l1.91,1a3.46,3.46,0,0,1,1.4,1,2.63,2.63,0,0,1,.43,1,39.38,39.38,0,0,1,.77,5.06c0,.51.12,1.26.29,2.77.35,3.08.74,5.55,1,7.32.16,1,.13.81.55,3.36.37,2.28.43,2.67.59,3.66.46,2.7.64,3.32.81,4.38a31,31,0,0,1,0,7.19c-.2,3.37-.54,5.88-.9,8.55-.39,2.9-.73,4.88-1.27,8.09A101.3,101.3,0,0,1,189,273.09c-.21.75-.39,1.37-.51,1.78.08.83.17,1.65.25,2.47a7.8,7.8,0,0,1,.85.34,8.05,8.05,0,0,1,2.64,2.17,13.2,13.2,0,0,1,2,3.15,17.1,17.1,0,0,1,1.23,3.72c29-8.46,53.86-25.78,69.05-53.74A115.13,115.13,0,0,0,263.58,220.34Zm-20.31-113.2,3.25-2.73c-.54,1.37-1.08,2.75-1.63,4.12a1.21,1.21,0,0,0-.69-.11,1.3,1.3,0,0,0-.93.81,3.19,3.19,0,0,0,.17-1A3.26,3.26,0,0,0,243.27,107.14Zm-78.22,8.47a4.55,4.55,0,0,1-1.79-2.09c-.1-.25-.85-2.09.08-3.26a3.42,3.42,0,0,1,2.56-.93,10.7,10.7,0,0,1,4.73.62Zm64.61-13.24a2.65,2.65,0,0,0,0-1.1,2.68,2.68,0,0,0-.29-.76c.56-1.24,1.12-2.48,1.69-3.72,0,1.42.07,2.83.11,4.24a3.32,3.32,0,0,0-.75.47A3.43,3.43,0,0,0,229.66,102.37Zm6.16,5.18a5.57,5.57,0,0,0,.29-1.92,5.72,5.72,0,0,0-.23-1.51l3.72-4.77c-.39,1.9-.77,3.8-1.16,5.7a4.87,4.87,0,0,0-1.4.87A5.18,5.18,0,0,0,235.82,107.55Z" transform="translate(-3.55 -3.55)"/><path class="cls-2" d="M306.15,184.62" transform="translate(-3.55 -3.55)"/></svg>