<svg id="Layer_1" data-name="Layer 1" xmlns="http://www.w3.org/2000/svg" viewBox="0 0 293.9 293.9"><defs><style>.cls-1{fill:none;stroke:#4577ff;stroke-miterlimit:10;stroke-width:8px;}.cls-2{fill:#4577ff;}</style></defs><circle class="cls-1" cx="146.95" cy="146.95" r="142.95"/><path class="cls-2" d="M225.84,71.24A5.72,5.72,0,0,1,228,72.51c11.91,10.9,15.7,17.34,15.7,17.34,8.34,14.19,12.52,21.28,14.72,25.92,10.57,22.2,15.11,38.52,19,52.45,0,0,2.13,7.64,3.65,22a37.52,37.52,0,0,1-.61,12.9,25.43,25.43,0,0,1-3.29,8.16,23.36,23.36,0,0,1-5.11,5.59,22.47,22.47,0,0,1-6.2,3.53,34.87,34.87,0,0,1-4.5,1.1c-9.35,2-11.49,2.27-12.78,2.67a7.12,7.12,0,0,1-1.46.31,8,8,0,0,1-1.4,0c-2.51-.25-5.6-3.9-5.6-3.9a34.57,34.57,0,0,1-4.26-6.2c-1.55-3.14-2.59-6-4.8-13.81-1.79-6.28-2.24-8.35-3.84-12.17s-2.74-5.47-3.71-6.57c-2.91-3.31-6.1-4.88-7.91-5.17a21.86,21.86,0,0,0-3.1-.13,5.22,5.22,0,0,0-1.34.19,2.72,2.72,0,0,0-.73.3,2.34,2.34,0,0,0-.73.73,15.6,15.6,0,0,1-2.74,2.44,25.47,25.47,0,0,1-6.45,3.95A21.51,21.51,0,0,1,198,185c-14.18,3.86-22.76,5.54-22.76,5.54-11.14,2.18-16.71,3.28-17.52,3.41a246.45,246.45,0,0,1-32.86,3c-7.63.06-15.67-.5-17.58-.43a5.41,5.41,0,0,1-1.16-.06,6.88,6.88,0,0,1-2.31-.79c-.79-.44-.61-.52-1.82-1.34a5.91,5.91,0,0,0-2.19-1.09c-1-.2-1.41-.07-1.52,0a1.61,1.61,0,0,0-.73.91,19.94,19.94,0,0,0-1.28,4c-.33,2-.49,3-.55,3.78a59,59,0,0,0,0,8.27,88.25,88.25,0,0,1-.24,12.11,78.5,78.5,0,0,1-3,19.29c-1.38,4.58-3.83,9.16-4.07,10.28a2,2,0,0,1-.43.91,2.18,2.18,0,0,1-.85.61,4.93,4.93,0,0,1-2,.42c-3.52-.08-7,1.12-10.46,1.53-9.38,1.08-9.61,1.35-12.72,1.33a28.17,28.17,0,0,1-6.27-.42,23,23,0,0,1-12.83-8.4c-2-2.57-2.85-4.73-4.32-8.58-2.61-6.8-3.44-12.52-4.63-21.11-.3-2.16-.63-4.58-1-8.21-.6-6.34-1.52-19.52-.3-40,.69-11.71,1.05-17.77,2.61-26.46a162.6,162.6,0,0,1,7.42-27.44c2.08-5.42,4.25-8.15,4.69-9.62a2.61,2.61,0,0,1,.85-1.34,2.32,2.32,0,0,1,.91-.42,38,38,0,0,0,3.78-1.28,4,4,0,0,1-1.16-1.15A3.78,3.78,0,0,1,51,100c0-.49.22-1,1.34-2.43A20.25,20.25,0,0,1,54.75,95a34.52,34.52,0,0,1,9.13-6c1.32-.56.61-.15,5.05-1.58a6.93,6.93,0,0,1,2.8-.37,3.3,3.3,0,0,1,1.76.55,3.15,3.15,0,0,1,1,1.71,18.78,18.78,0,0,1,.79,4.8c2.61-.86,6.34-2.06,10.83-3.4,4.19-1.26,20.47-6.08,47-11.26,15.24-3,26.68-5.22,42.77-6.82,10.9-1.07,20.14-1.48,27-1.64a30.13,30.13,0,0,1-.42-3.22c-.2-2.56.16-2.18-.06-3.47a1.39,1.39,0,0,1,.06-.91c.32-.65,1.23-.79,1.64-.86,4.06-.65,2.78-.81,5.29-1a31,31,0,0,1,4.75,0,17.72,17.72,0,0,1,5.78,1.28,5.58,5.58,0,0,1,2.37,1.64,6.17,6.17,0,0,1,1,2.31c.18.63.32,1.53.61,3.35,0,.33.09.61.12.79.22,0,.54.06.91.12C224.93,71.05,225.43,71.14,225.84,71.24Z" transform="translate(-3.05 -3.05)"/></svg>