<svg id="Layer_1" data-name="Layer 1" xmlns="http://www.w3.org/2000/svg" viewBox="0 0 293.9 293.9"><defs><style>.cls-1{fill:none;stroke:#00d00f;stroke-miterlimit:10;stroke-width:8px;}.cls-2{fill:#00d00f;}</style></defs><circle class="cls-1" cx="146.95" cy="146.95" r="142.95"/><path class="cls-2" d="M46.32,107.19c0,38-.09,72.64-.14,110.62a2,2,0,0,0,1.19,1.83l102,45.07a2,2,0,0,0,.81.17,2,2,0,0,0,.82-.18l99.93-45.33a2,2,0,0,0,1.18-1.82v-139a2,2,0,0,0-1.34-1.89L149.64,41.13a2,2,0,0,0-1.29,0L47.73,74.46a2,2,0,0,0-1.38,1.9l0,27.45,4,1.85c0-8,0-19.9,0-27.85L149,45.13,248.1,80V216.26l-97.95,44.42-100-44.17L50.32,109Z" transform="translate(-3.05 -3.05)"/><path class="cls-2" d="M181.18,149.35a1.47,1.47,0,0,0,.79-.19l6-3.35a2,2,0,0,0,1-1.66l.26-7.3a.48.48,0,0,1,.26-.41l2.56-1.23a.47.47,0,0,1,.67.44l-.18,5.08a1.5,1.5,0,0,0,2.21,1.38l4.71-2.51a2,2,0,0,0,1.05-1.68l.52-14.77a.47.47,0,0,1,.26-.4l3.61-1.86a.47.47,0,0,1,.69.44l-.17,4.68a1.5,1.5,0,0,0,.73,1.34,1.52,1.52,0,0,0,1.53,0l4.72-2.76a2,2,0,0,0,1-1.64l.51-14.25a.47.47,0,0,1,.26-.4l3.32-1.63a.47.47,0,0,1,.68.44l-.84,23.76a1.5,1.5,0,0,0,2.15,1.4l4.46-2.15a2,2,0,0,0,1.12-1.71l.23-6.42a.46.46,0,0,1,.28-.41L238,116a2,2,0,0,0,1.17-1.73l.23-6.47a.45.45,0,0,1,.27-.41l2.08-1a.47.47,0,0,1,.67.45l-.15,4.31a1.5,1.5,0,0,0,2.1,1.42l6.42-2.84a.48.48,0,0,0,.24-.63l-.83-1.87a.48.48,0,0,0-.63-.24L246,108.6a.47.47,0,0,1-.66-.45l.15-4.38a1.49,1.49,0,0,0-.67-1.31,1.47,1.47,0,0,0-1.46-.1l-5.83,2.73a2,2,0,0,0-1.14,1.72l-.23,6.45a.44.44,0,0,1-.28.41l-12.41,5.56a2,2,0,0,0-1.17,1.73l-.22,6.45a.47.47,0,0,1-.27.41l-1.41.68.87-24.57a1.5,1.5,0,0,0-2.16-1.4L212,106a2,2,0,0,0-1.11,1.7L210.4,122a.45.45,0,0,1-.23.39l-.92.54a.47.47,0,0,1-.71-.43l.16-4.47a1.53,1.53,0,0,0-.7-1.32,1.5,1.5,0,0,0-1.49-.06l-7.38,3.8a2,2,0,0,0-1.07,1.69L197.53,137a.46.46,0,0,1-.25.4l-.93.5a.48.48,0,0,1-.7-.43l.16-4.54a1.49,1.49,0,0,0-2.31-1.31l-6.57,2.91a1.5,1.5,0,0,0-.67,1.2l-.27,7.53a.49.49,0,0,1-.24.39l-2.18,1.22a.47.47,0,0,1-.71-.43l.28-7.72a1.52,1.52,0,0,0-.72-1.33,1.49,1.49,0,0,0-1.5,0l-3.49,1.9a.47.47,0,0,1-.7-.43l.21-5.84a1.5,1.5,0,0,0-2.2-1.38L166.33,134a2,2,0,0,0-1.05,1.68l-.17,4.71a.46.46,0,0,1-.28.41l-7.44,3.38a.47.47,0,0,1-.67-.45l.2-5.45a1.5,1.5,0,0,0-2.16-1.4l-4.55,2.26a1.75,1.75,0,0,0-1,1.5l-.06,1.71a.48.48,0,0,0,.7.43l3.24-1.73a.47.47,0,0,1,.69.44l-.19,5.32a1.5,1.5,0,0,0,2.12,1.42l11.19-5.08a2,2,0,0,0,1.16-1.73l.17-4.76a.47.47,0,0,1,.25-.41l4.63-2.43a.47.47,0,0,1,.69.44l-.21,5.9a1.51,1.51,0,0,0,.71,1.33,1.53,1.53,0,0,0,1.51,0l3.48-1.91a.47.47,0,0,1,.7.43l-.27,7.78a1.48,1.48,0,0,0,.72,1.33A1.44,1.44,0,0,0,181.18,149.35Z" transform="translate(-3.05 -3.05)"/><path class="cls-2" d="M49.85,75.94l0,28.91a.92.92,0,0,0,.54.84l2.27,1a.92.92,0,0,0,1.31-.84v-3.71a1.5,1.5,0,0,1,2.19-1.33l5.48,2.81a2.43,2.43,0,0,1,1.32,2.16v5.9a.93.93,0,0,0,.52.83l11.7,5.75a2.43,2.43,0,0,1,1.36,2.17v5.9a.92.92,0,0,0,.49.82l1.15.6V103.21a1.49,1.49,0,0,1,2.2-1.32l6.72,3.59a2.44,2.44,0,0,1,1.28,2.14v13.82a.93.93,0,0,0,.43.78h0a.93.93,0,0,0,1.42-.78v-3.66a1.49,1.49,0,0,1,2.23-1.31l7,3.94a2.41,2.41,0,0,1,1.24,2.11v14.27a.91.91,0,0,0,.46.8h0a.92.92,0,0,0,1.38-.8v-3.75a1.51,1.51,0,0,1,2.37-1.23l6.45,3.9A1.5,1.5,0,0,1,112,137v7.87a.92.92,0,0,0,.51.83l1.23.62a.93.93,0,0,0,1.34-.83v-6.75a1.51,1.51,0,0,1,2.27-1.29l2.73,1.63a.93.93,0,0,0,1.4-.8v-4.42a1.49,1.49,0,0,1,2.24-1.3l8.49,4.22A1.52,1.52,0,0,1,133,138v4.7a.94.94,0,0,0,.51.83l6.42,3.19a.93.93,0,0,0,1.34-.82v-7.62A1.5,1.5,0,0,1,142,137a1.53,1.53,0,0,1,1.48,0l4.17,2.19a.92.92,0,0,0,1.35-.82l-.11-17,102.48-43L150,42.91Z" transform="translate(-3.05 -3.05)"/><path class="cls-2" d="M56.24,111a1.51,1.51,0,0,0,.7-1.28v-3.57a.92.92,0,0,1,1.35-.82l1.14.58a.93.93,0,0,1,.5.83v5.91a2.43,2.43,0,0,0,1.36,2.18L73,120.58a.92.92,0,0,1,.52.83v5.87a2.42,2.42,0,0,0,1.29,2.15L79,131.6a1.48,1.48,0,0,0,1.47,0,1.5,1.5,0,0,0,.73-1.28v-23a.92.92,0,0,1,1.35-.82l2.36,1.27a.92.92,0,0,1,.49.81v14.25a1.48,1.48,0,0,0,.7,1.27l4.85,2.66a1.51,1.51,0,0,0,2.3-1.27v-3.51a.92.92,0,0,1,1.37-.81l2.64,1.48a.94.94,0,0,1,.48.81v14.26a2.45,2.45,0,0,0,1.2,2.1l4.4,2.54a1.49,1.49,0,0,0,1.5,0,1.47,1.47,0,0,0,.75-1.29v-3.55a.93.93,0,0,1,1.35-.82l1.61.83a.92.92,0,0,1,.5.82v7.94a1.51,1.51,0,0,0,.72,1.29l6.08,3.37a1.56,1.56,0,0,0,.78.22,1.52,1.52,0,0,0,.74-.2,1.48,1.48,0,0,0,.76-1.3V143a.93.93,0,0,1,1.4-.8l2.73,1.63a1.51,1.51,0,0,0,2.27-1.29v-4.66a.92.92,0,0,1,1.31-.84l3.63,1.67a.92.92,0,0,1,.54.84v4.17a2.42,2.42,0,0,0,1.35,2.17l10.75,5.35a1.5,1.5,0,0,0,2.17-1.34v-7.49a.92.92,0,0,1,1.36-.82l2.92,1.57a.94.94,0,0,1,.49.81l1.15,116.37a.92.92,0,0,1-1.29.86L50.23,217.92a.94.94,0,0,1-.55-.85l.14-106.82a.92.92,0,0,1,1.3-.84l3.67,1.66A1.5,1.5,0,0,0,56.24,111Z" transform="translate(-3.05 -3.05)"/></svg>