<svg id="Layer_1" data-name="Layer 1" xmlns="http://www.w3.org/2000/svg" viewBox="0 0 293.9 293.9"><defs><style>.cls-1{fill:none;stroke:#9cd4fd;stroke-miterlimit:10;stroke-width:8px;}.cls-2{fill:#9cd4fd;}</style></defs><circle class="cls-1" cx="146.95" cy="146.95" r="142.95"/><path class="cls-2" d="M223.33,201.39c-.05-1.48,0-2.91-.12-4.33-.1-1.66,0-3.33-.06-5-.12-3.09-.11-6.17-.13-9.26a10.93,10.93,0,0,0-.12-1.12.42.42,0,0,0-.13-.31c-.18-.13-.35-.26-.28-.51a1.14,1.14,0,0,1,.42-.63,5.54,5.54,0,0,1,3.85-1.21c.65,0,.8.16,1,.78a3.26,3.26,0,0,1,.09.69c.12,3.33.09,6.65.17,10,0,2.17,0,4.35.15,6.52.1,1.83.06,3.65.11,5.47,0,.56.06,1.12.08,1.68,0,1-.06,2.05-.12,3.08a1.33,1.33,0,0,1-.35.76,4.72,4.72,0,0,1-2.48,1.73,8.32,8.32,0,0,1-2.43.23,3,3,0,0,1-2-1.07c-.09-.1-.14-.25-.31-.28s-.2.3-.23.46a5.81,5.81,0,0,1-1.28,2.38A4.69,4.69,0,0,1,217,213a6.7,6.7,0,0,1-4.46.21,5.33,5.33,0,0,1-2.44-1.82,16.72,16.72,0,0,1-2.71-5,48,48,0,0,1-1.88-6.52c-.4-1.89-.7-3.8-1.07-5.7-.18-.94-.38-1.88-.61-2.8-.06-.25-.09-.5.09-.66a4.55,4.55,0,0,1,1.08-1,5.66,5.66,0,0,1,3-.56c.51,0,.54.11.58.68a7.39,7.39,0,0,0,.21,1c.39,1.71.67,3.43,1,5.15a55.32,55.32,0,0,0,2,7.72,18.81,18.81,0,0,0,2.48,5.17,5.31,5.31,0,0,0,1.35,1.37,26.42,26.42,0,0,0,.52-2.72c.27-2.06.55-4.12.81-6.17.13-1.05.2-2.09.3-3.14a.5.5,0,0,0,0-.21c-.42-1.09.38-1.65,1.08-2.07a4.2,4.2,0,0,1,3.28-.62c.47.12.64.32.52.75a2,2,0,0,0,.05,1c.3,1.34.61,2.68.92,4A.41.41,0,0,0,223.33,201.39Z" transform="translate(-3.05 -3.05)"/><path class="cls-2" d="M236.09,125.64a8.37,8.37,0,0,1-2.23-.14l-.33-.09c-.35-.11-.72-.25-.75-.64s.34-.53.63-.66c1.14-.54,2.3-1,3.44-1.58a21.34,21.34,0,0,0,4.55-2.76,10.57,10.57,0,0,0,1.79-1.87,2.65,2.65,0,0,0,.4-.89.91.91,0,0,0-.49-1.17,11.7,11.7,0,0,0-2.58-.87,28.44,28.44,0,0,1-5.07-1.84,9.61,9.61,0,0,1-3.52-2.71,5.5,5.5,0,0,1-1-4.84,8.29,8.29,0,0,1,2-3.72,19.76,19.76,0,0,1,1.56-1.61,7.56,7.56,0,0,1,3.9-1.58,17.76,17.76,0,0,1,3.64-.15,5.33,5.33,0,0,1,2.12.44c.66.31.74.65.59,1.36a2.08,2.08,0,0,1-1.71,1.61,7,7,0,0,1-1.78.36,1.25,1.25,0,0,0-1,.56,6.2,6.2,0,0,0-1,2.29,4.76,4.76,0,0,0,.41,3.6,5.75,5.75,0,0,0,1.56,1.77,14.76,14.76,0,0,0,4.83,2.19c1.21.35,2.43.7,3.61,1.14a4.44,4.44,0,0,1,1.79,1.07,1.69,1.69,0,0,1,.44,1.74,5.41,5.41,0,0,1-1.41,2.23,18.19,18.19,0,0,1-3.84,3,47.35,47.35,0,0,1-6.37,3.09A9.39,9.39,0,0,1,236.09,125.64Z" transform="translate(-3.05 -3.05)"/><path class="cls-2" d="M216.64,100.47a8.52,8.52,0,0,1-2.26-.24,2,2,0,0,1-.58-.23c-.41-.24-.47-.43-.29-.86a10.83,10.83,0,0,0,.75-2.47,2.31,2.31,0,0,0-.06-1.25,4.73,4.73,0,0,0-.78-1.85c-.15-.15,0-.34.08-.5a2.27,2.27,0,0,1,1.26-.7,16.92,16.92,0,0,1,2.83-.49,11.78,11.78,0,0,1,2.91.18,2,2,0,0,1,1.62,1.38,5.59,5.59,0,0,1,.49,2.52,9.73,9.73,0,0,1-.92,3.07,1.64,1.64,0,0,1-.9.75,6.69,6.69,0,0,1-2.1.53A9.9,9.9,0,0,1,216.64,100.47Z" transform="translate(-3.05 -3.05)"/><path class="cls-2" d="M208.84,154.54c0,1.29,0,1.32-1.11,1.81a6.34,6.34,0,0,1-2.64.61c-.77,0-1-.25-1-1a12.14,12.14,0,0,0-.1-2.17c-.08-.34.17-.53.4-.67a6,6,0,0,1,3.75-.92c.33,0,.6.16.58.56C208.67,153.38,208.91,154,208.84,154.54Z" transform="translate(-3.05 -3.05)"/><path class="cls-2" d="M215.13,126.48a12.44,12.44,0,0,0-3.5-.11,9.17,9.17,0,0,0-2.52.55,1.86,1.86,0,0,0-1.23,1.15,12.66,12.66,0,0,1-.67,1.39,5.09,5.09,0,0,1-.83,1.12c-.21.22-.4.23-.6,0a8.68,8.68,0,0,1-1.64-1.73,18.16,18.16,0,0,1-2.32-5.83c-.61-2.66-1.12-5.34-1.7-8a20,20,0,0,0-1.82-5.43,6,6,0,0,0-4-3.13,16.27,16.27,0,0,0-4.35-.42,21.16,21.16,0,0,0-4.56.65.7.7,0,0,1-.6,0,4.17,4.17,0,0,0-2-.55,13.15,13.15,0,0,0-4.05.29,4.9,4.9,0,0,0-1.64.59c-.24.16-.57.35-.44.71a16.38,16.38,0,0,1,.55,3.1,27.44,27.44,0,0,1,.51,4.44.89.89,0,0,0,.17.66,1.52,1.52,0,0,1,.22.73c.27,1.3.5,2.61.75,3.91.55,2.82,1.19,5.62,2,8.37.69,2.33,1.26,4.69,1.84,7.05.11.46.09.48-.37.48a1.47,1.47,0,0,1-.21,0,23,23,0,0,1-3.49-.74A21.58,21.58,0,0,1,171,131a28.74,28.74,0,0,1-2.94-3.2,25.64,25.64,0,0,1-4.9-9.07,13.65,13.65,0,0,1-.68-4.48.89.89,0,0,1,.31-.74,1.19,1.19,0,0,0-.38-2.09,8,8,0,0,0-2.06-.36,10.77,10.77,0,0,0-2.72.16,5.55,5.55,0,0,0-3.57,1.42,1,1,0,0,1-.24.15,30.42,30.42,0,0,0-4.53,3.53,41.38,41.38,0,0,0-3,3.29,25.6,25.6,0,0,0-3.13,4.81,21.85,21.85,0,0,0-2.3,7.75,16.91,16.91,0,0,0,.16,4.87,8.78,8.78,0,0,0,5,6.56,13.86,13.86,0,0,0,5.55,1.31c.72,0,1.44,0,2.15,0l0,.16-.42.25c-2.15,1.24-4.37,2.33-6.63,3.37-1.82.84-3.68,1.61-5.58,2.27a43.72,43.72,0,0,1-9.58,2.29,13.52,13.52,0,0,1-4-.09,14.36,14.36,0,0,1-5.08-1.94,9.72,9.72,0,0,1-2.73-2.5c-.28-.38-.27-.43.07-.75l.21-.19c2-1.57,3.85-3.34,5.71-5.08,1.52-1.42,2.92-3,4.3-4.53a25.83,25.83,0,0,0,3.67-5,11.23,11.23,0,0,0,1.58-5.88,4.21,4.21,0,0,0-2.39-3.77,12.49,12.49,0,0,0-4.9-1,13,13,0,0,0-2.24.1c-.9.08-1.8.21-2.7.37a23.68,23.68,0,0,0-5.38,1.75,10.78,10.78,0,0,0-4.23,3.29,22.25,22.25,0,0,0-4,8.42,32.43,32.43,0,0,0-.74,4.05,16.46,16.46,0,0,0-.06,3.29,11.58,11.58,0,0,0,1.32,4.62.4.4,0,0,1-.14.59c-1.16.87-2.28,1.79-3.49,2.6a73.29,73.29,0,0,1-9,5,11.48,11.48,0,0,1-2.36.86,4.68,4.68,0,0,1-4.58-1.26,8.16,8.16,0,0,1-2.44-5.3,14.34,14.34,0,0,1,1.38-7.78,28,28,0,0,1,3.32-5.43,37.59,37.59,0,0,1,5.27-5.43,34.63,34.63,0,0,1,5-3.43,2.12,2.12,0,0,0,.44-.35.5.5,0,0,0-.09-.87,1.65,1.65,0,0,0-.37-.2,9.06,9.06,0,0,0-2.83-.41,13.47,13.47,0,0,0-2.43.26,8,8,0,0,0-3.09,1.07,46.09,46.09,0,0,0-6.24,4.64A38,38,0,0,0,84,137.34a26.35,26.35,0,0,0-3.67,5.95,15.54,15.54,0,0,0-1.5,7.53,11.88,11.88,0,0,0,.73,3.55,8.31,8.31,0,0,0,4.56,4.71,17.62,17.62,0,0,0,6.49,1.25,30.13,30.13,0,0,0,3.15-.09,34.59,34.59,0,0,0,5.74-.87,40.3,40.3,0,0,0,5.47-1.71,39,39,0,0,0,8.75-4.41c.1-.07.21-.12.3-.19s.3-.12.5,0a23.59,23.59,0,0,0,10.43,2.9,45.31,45.31,0,0,0,6.38-.07c1.91-.16,3.8-.4,5.69-.73a64.45,64.45,0,0,0,8.14-2,82.27,82.27,0,0,0,10.59-4.28,59.88,59.88,0,0,0,10.49-6.22,17,17,0,0,0,2.69-2.24c.72-.81,1.6-1.44,2.3-2.25a.66.66,0,0,1,.8-.2,29.62,29.62,0,0,0,6.18,1.13,39.41,39.41,0,0,0,4.21.18,50.59,50.59,0,0,0,6-.15,7.67,7.67,0,0,0,2.6-.78c.55-.31.64-.51.41-1.07a2.33,2.33,0,0,1-.16-.89,2.9,2.9,0,0,0-.1-.83c-.75-2.85-1.49-5.69-2.28-8.52-.66-2.34-1.2-4.7-1.64-7.09-.35-1.91-.74-3.8-1.08-5.71a3.1,3.1,0,0,1,.43-2.14,13.41,13.41,0,0,1,2.14-2.68c.22-.23.39-.19.57,0a7.18,7.18,0,0,1,.81,1.22,27.77,27.77,0,0,1,2,6.48c.53,2.41.89,4.86,1.54,7.25a19,19,0,0,0,2.17,5.3,8,8,0,0,0,3.66,3.16,13.18,13.18,0,0,0,4.71.9,20.65,20.65,0,0,0,5-.41,11.9,11.9,0,0,0,3.17-1.09,7.92,7.92,0,0,0,3.63-4.12C216.5,127,216.35,126.72,215.13,126.48Zm-97.6,15.32a7.22,7.22,0,0,1,.13-2.41,26.51,26.51,0,0,1,1.09-5,21.09,21.09,0,0,1,3.25-6.26,7.44,7.44,0,0,1,2.74-2.36c.5-.23.62-.2.9.28a4.55,4.55,0,0,1,.49,3.05,14.48,14.48,0,0,1-3.14,6.79,53.84,53.84,0,0,1-5.15,5.73C117.76,141.72,117.69,141.84,117.53,141.8Zm46.92-6.8a6.84,6.84,0,0,1-.51,1.22,13,13,0,0,1-1.15,1.5,3,3,0,0,1-1.39,1,1.38,1.38,0,0,0-1.07,1c0,.17-.2.26-.35.34a17.56,17.56,0,0,1-4.34,1.92,2.15,2.15,0,0,1-1.56-.11A6.81,6.81,0,0,1,151,139.1a10,10,0,0,1-1.21-3.7,18.07,18.07,0,0,1,.65-7.2,23.23,23.23,0,0,1,3.69-7.5c.05-.08.09-.17.13-.25l.18.08a30,30,0,0,0,1.79,4,31.59,31.59,0,0,0,3.71,5.26c.67.78,1.39,1.51,2.12,2.24a15.74,15.74,0,0,0,2,1.69A1,1,0,0,1,164.45,135Z" transform="translate(-3.05 -3.05)"/><path class="cls-2" d="M267,158.07a4.22,4.22,0,0,0-1.46-.1,4.29,4.29,0,0,1-2.25-.67,8.4,8.4,0,0,1-3.2-4,2.47,2.47,0,0,1-.13-1.63,38.86,38.86,0,0,0,1-8.18,46.31,46.31,0,0,0-.29-5.88,12.51,12.51,0,0,0-.43-2.26,1,1,0,0,0-1-.88,9.42,9.42,0,0,0-3.12.31,2.33,2.33,0,0,0-1.89,2.07,4.86,4.86,0,0,1-.11.55c-.2,1.17-.37,2.35-.46,3.54a30.8,30.8,0,0,0-.2,4.4c.07,1,.1,2,.2,3a29.33,29.33,0,0,0,.89,4.74,1.55,1.55,0,0,1,0,.88,22,22,0,0,1-2.36,5.53c-.39.63-.74.71-1.39.35a1.86,1.86,0,0,1-.27-.22c-1.22-1-2.48-2.06-3.65-3.17a4,4,0,0,1-1.42-2.25,8.44,8.44,0,0,0-1.18-2.83,1.77,1.77,0,0,0-1.84-.86c-.63.06-1.25.17-1.87.27a4.77,4.77,0,0,0-3.67,2.62c-.92,1.73-1.93,3.41-2.74,5.21-1.23,2.7-2.76,5.26-4.22,7.84a8.32,8.32,0,0,1-3.39,3.16c-.67.37-.91.3-1.31-.34a2,2,0,0,1-.27-.65,5.41,5.41,0,0,1-.22-1.45,21.17,21.17,0,0,1,.51-3.8,19.68,19.68,0,0,1,1.38-4.11,8.57,8.57,0,0,1,2.09-3.13c.12-.11.23-.23.34-.35s.13-.39-.11-.49a2.26,2.26,0,0,0-.68-.17,5.49,5.49,0,0,0-1.46.15,5.35,5.35,0,0,0-3.29,1.85c-.23.3-.48.58-.72.86-.62.73-1.26,1.45-1.85,2.2a48.09,48.09,0,0,0-4.57,7.31,5.32,5.32,0,0,1-1.75,1.87.88.88,0,0,1-.92.12,5.41,5.41,0,0,1-.87-.43,6.48,6.48,0,0,1-2-2.34,13.86,13.86,0,0,1-1.61-5.18c-.07-.69-.31-.89-1-.91a6,6,0,0,0-3.44,1,.68.68,0,0,0-.34.65,24,24,0,0,1-.25,3.49,13.13,13.13,0,0,1-.78,3.33,29,29,0,0,1-3,5.7c-.1.16-.15.4-.4.44a1.73,1.73,0,0,1-.32-.78,23,23,0,0,0-1.47-3.56,7.17,7.17,0,0,0-1.78-2.24,4.41,4.41,0,0,0-3.44-.79,6.16,6.16,0,0,0-4,1.71.16.16,0,0,1-.19.06c-.08-.15,0-.31,0-.46.17-.94.33-1.88.45-2.83.09-.63,0-1.26.12-1.88a22.69,22.69,0,0,0,.08-4.28c-.08-1.61-.18-3.22-.25-4.82a8.41,8.41,0,0,0-.26-1.8.89.89,0,0,0-.86-.71,5.34,5.34,0,0,0-3.68.85,1.59,1.59,0,0,0-.7,1.07,25.63,25.63,0,0,0-.21,3.91c-.11,3.06-.09,6.13.08,9.19.06,1,0,1.92.12,2.88a5.24,5.24,0,0,1-.2,2.28,34.73,34.73,0,0,1-4.16,8.47,2.62,2.62,0,0,1-1.28,1.24.59.59,0,0,0-.32.26c-.21.38-.45.25-.68,0a7.46,7.46,0,0,1-1.52-1.74,15.74,15.74,0,0,1-1.24-2.74A36.08,36.08,0,0,1,173,173a.56.56,0,0,1,.39-.71c1.1-.51,2.19-1.05,3.31-1.53a3.27,3.27,0,0,0,1.2-.94c.2-.24.13-.42-.16-.54a1,1,0,0,0-.34-.07,5.94,5.94,0,0,0-2.22.21,12.87,12.87,0,0,0-1.62.68,1.47,1.47,0,0,1-.86.25c0-.5-.12-1-.17-1.42-.07-.65-.09-1.3-.16-1.95a30,30,0,0,1-.24-3.28c0-.72,0-1.45,0-2.18a4.34,4.34,0,0,0-.06-.62.75.75,0,0,0-.71-.67A5.21,5.21,0,0,0,168,161a1.23,1.23,0,0,0-.56,1.24c.08,1.05.15,2.1.2,3.15s-.17,2.19-.14,3.29-.2,2.38-.16,3.57c0,.14-.07.28-.07.41a.76.76,0,0,1-.59.77,30.29,30.29,0,0,0-3.92,2,1.11,1.11,0,0,0-.64.7c-.14.5-.08.64.44.67a6.54,6.54,0,0,0,3-.46c.5-.22.93-.57,1.52-.79-.17,1.28-.36,2.47-.51,3.67a40,40,0,0,1-1,5.56,13.46,13.46,0,0,1-1.07,3.11,34.65,34.65,0,0,1-3.59,5,2.18,2.18,0,0,1-1,.8.39.39,0,0,1-.06-.14,65.68,65.68,0,0,0-.42-8.05,19.86,19.86,0,0,0-.93-4.43,1,1,0,0,0-1-.76,5.89,5.89,0,0,0-2.76.67,2.62,2.62,0,0,0-1.11,2.4,9.11,9.11,0,0,1,.2,1.8,15.14,15.14,0,0,1-.54,4.08,8.18,8.18,0,0,1-1.73,3.1c-.23.25-.38.24-.63,0a7.77,7.77,0,0,1-1.87-2.76,21,21,0,0,1-1.56-7.78c0-.67-.25-.92-.93-1a6.25,6.25,0,0,0-2.26.39,1.76,1.76,0,0,0-1.3,1.77c-.1,1.23-.23,2.46-.45,3.68a25,25,0,0,1-2,6.26c-.56,1.2-.26,1.35-1.63.45a15.53,15.53,0,0,1-4.27-4.5,42.59,42.59,0,0,1-4.16-7.94,75.13,75.13,0,0,1-3.19-9.72,31.46,31.46,0,0,1-1-5.62c0-.47-.14-.55-.63-.7a4.75,4.75,0,0,0-2.73.39,1.77,1.77,0,0,0-1.11,1,20.63,20.63,0,0,0-1.39,4.33c-.68,3.05-1.36,6.1-1.77,9.2a48.46,48.46,0,0,0-.51,5.5c0,.88-.2,1.75-.2,2.65a13.61,13.61,0,0,1-1.75-3,42.32,42.32,0,0,1-2.3-6.45,44.74,44.74,0,0,1-1.39-7.06c-.09-.79-.42-1.17-1.19-1.19a5.6,5.6,0,0,0-2.82.73,1,1,0,0,0-.49.72c-.15,1.11-.37,2.21-.53,3.32q-.48,3.39-.7,6.81c-.1,1.68-.23,3.36-.27,5-.07,2.57-.17,5.13-.44,7.69-.14,1.27-.31,2.54-.53,3.81a51.8,51.8,0,0,1-1.45,6.12,34,34,0,0,1-2.53,6.22.69.69,0,0,1-.65.43,6.83,6.83,0,0,0-2,.44,3.73,3.73,0,0,0-.69.35c-.13.09-.32.26-.25.39.22.36.16.83.45,1.14a2.73,2.73,0,0,0,1.59.94,7.12,7.12,0,0,0,1.39-.06,5.31,5.31,0,0,0,2.62-.9,6.44,6.44,0,0,0,1.9-2.4,34.83,34.83,0,0,0,2.79-7c.41-1.44.76-2.89,1-4.36.32-1.7.57-3.4.76-5.12.15-1.34.31-2.69.34-4,0-1.92.24-3.83.19-5.75a.74.74,0,0,1,0-.21c0-.12,0-.28.19-.3a1.24,1.24,0,0,1,.3.55,27.62,27.62,0,0,0,1.53,3.31,12,12,0,0,0,2.37,3.2,20.59,20.59,0,0,0,3.18,2.3,1.33,1.33,0,0,0,.87.22,7.59,7.59,0,0,0,2.1-.51,1,1,0,0,0,.68-1c0-1.17,0-2.34.1-3.51.11-1.49.07-3,.16-4.48.05-.82.11-1.64.2-2.45.17-1.69.42-3.37.69-5.05a7.12,7.12,0,0,1,.43-1.84.77.77,0,0,1,.21.45,63.1,63.1,0,0,0,5,12.35,24.34,24.34,0,0,0,4.64,6.3,11.78,11.78,0,0,0,4.55,2.67,4.78,4.78,0,0,0,2,.3,4.46,4.46,0,0,0,3.57-2.17,19.34,19.34,0,0,0,1.26-2.59c0-.12,0-.28.24-.29.25.39.49.8.77,1.17a4.11,4.11,0,0,0,2.6,1.77,7.39,7.39,0,0,0,1.82,0,7.51,7.51,0,0,0,4.62-2c.13-.12.22-.32.47-.29a2.46,2.46,0,0,0,0,.28c.08,1.61-.17,3.22-.14,4.83a1,1,0,0,1-.32.76c-.68.68-1.26,1.43-1.88,2.17a37.44,37.44,0,0,0-4,5.9,9.48,9.48,0,0,0-.94,2.26,10.08,10.08,0,0,0-.27,4.3,7.26,7.26,0,0,0,.79,2.45,2.25,2.25,0,0,0,1.94,1.31c.39,0,.79,0,1.19-.08A4.54,4.54,0,0,0,155,215.4a8,8,0,0,0,1.17-2,27.34,27.34,0,0,0,1.06-3,56.53,56.53,0,0,0,1.49-6.4c.21-1.27.45-2.53.58-3.8a1.29,1.29,0,0,1,.59-1,13.21,13.21,0,0,0,2-1.7c.93-.95,1.88-1.89,2.77-2.88a18.52,18.52,0,0,0,3.12-4.72,35.68,35.68,0,0,0,2.64-7.8c0-.14,0-.29.29-.3a17.31,17.31,0,0,0,1.08,1.84,4.54,4.54,0,0,0,3.24,2,9.32,9.32,0,0,0,2.58-.11,9,9,0,0,0,4.87-2.85,19.66,19.66,0,0,0,1.84-2.48,1.22,1.22,0,0,1,.5-.56c.13.34.26.65.37.95a6.51,6.51,0,0,0,.9,1.66,1.55,1.55,0,0,0,1.22.72,6.28,6.28,0,0,0,2.87-.54,2.78,2.78,0,0,0,1.71-2.32,20,20,0,0,0,0-3.37,15.33,15.33,0,0,1,.23-5,2.56,2.56,0,0,1,.4-1,.75.75,0,0,1,.42.38c.3.5.62,1,.9,1.5a20.75,20.75,0,0,1,1.77,4.93A1.45,1.45,0,0,0,197,178.8a7.32,7.32,0,0,0,3.88-.63,9.6,9.6,0,0,0,3.33-2.94,36.13,36.13,0,0,0,3-4.78c.26-.47.25-.47.68-.11a5,5,0,0,0,3.34,1.26,11.68,11.68,0,0,0,3.06-.28,9,9,0,0,0,3.51-1.66c.56-.46,1.16-.87,1.68-1.38.23-.24.39-.19.47.16s0,.46.06.69a2.81,2.81,0,0,0,1.83,2.66A4.31,4.31,0,0,0,223,172a11.44,11.44,0,0,0,5.08-1.14,17.37,17.37,0,0,0,4.69-2.91c.14-.13.27-.17.42,0a2.44,2.44,0,0,0,1.9.55,10.88,10.88,0,0,0,3.66-.87,11.63,11.63,0,0,0,6.07-5.75c.08-.17.17-.33.25-.5s.19-.16.29-.07a4.06,4.06,0,0,0,1.64.77,8.3,8.3,0,0,0,5.14.39,7.57,7.57,0,0,0,4.07-2.34c.4-.5.73-1,1.08-1.56.18-.29.32-.35.59-.09a5,5,0,0,0,1.83,1,10.06,10.06,0,0,0,6.92-.36,2.3,2.3,0,0,0,.49-.26c.15-.11.32-.23.29-.45S267.2,158.13,267,158.07ZM152.37,212.51c-.92-3,.37-5.19,1.88-7.37A34.12,34.12,0,0,1,152.37,212.51Zm87.89-50.66a10.5,10.5,0,0,1-2.22,3.53l-.26.23s-.09,0-.18,0a2.09,2.09,0,0,1-.21-1.26A16.9,16.9,0,0,1,240,156.3c.08-.12.13-.27.29-.27s.27.18.32.33a3.34,3.34,0,0,1,.22.88A9.93,9.93,0,0,1,240.26,161.85Z" transform="translate(-3.05 -3.05)"/><path class="cls-2" d="M73.81,132.76c-.11-1.77-.27-3.54-.44-5.3a47,47,0,0,0-1.24-6.88,41.23,41.23,0,0,0-4.32-11.06,24.91,24.91,0,0,0-5-6.35,14.1,14.1,0,0,0-9-3.51,23,23,0,0,0-3.71.09,25.23,25.23,0,0,0-2.63.38,21.42,21.42,0,0,0-5.77,2.12,30.35,30.35,0,0,0-5.39,3.88,41.1,41.1,0,0,0-3,3c-.63.69-1.22,1.42-1.8,2.14a40,40,0,0,0-2.37,3.31,27.93,27.93,0,0,0-1.95,3.4c-1,2.13-1.61,4.45-2.76,6.52a17.53,17.53,0,0,0-.92,2.13,37.76,37.76,0,0,0-2.1,7.46,39.66,39.66,0,0,0-.59,6.34c0,.51,0,1,0,1.41a53.22,53.22,0,0,0,.26,5.73c.16,1.53.35,3.06.64,4.57A48.64,48.64,0,0,0,24.55,162a28.2,28.2,0,0,0,3.56,6.34,16.69,16.69,0,0,0,6.36,5.18,19.76,19.76,0,0,0,7.68,1.65,29.43,29.43,0,0,0,3.51-.08c1.16-.09,2.31-.23,3.46-.43a27.76,27.76,0,0,0,9.49-3.48,26.93,26.93,0,0,0,8.46-7.86,31.4,31.4,0,0,0,4-7.94A48.05,48.05,0,0,0,73,147.75c.24-1.42.42-2.85.57-4.29.22-2.07.35-4.14.37-6.22C73.91,135.75,73.9,134.25,73.81,132.76Zm-9.07,8.8A58.69,58.69,0,0,1,63,152.87a37,37,0,0,1-2.32,6.45,28.63,28.63,0,0,1-4.38,6.57A23.36,23.36,0,0,1,49,171.36a17.52,17.52,0,0,1-2.56,1,4.89,4.89,0,0,1-3.07-.19A13.74,13.74,0,0,1,37,167.26a28.69,28.69,0,0,1-4.24-8.11A49.69,49.69,0,0,1,30.45,150q-.37-2.52-.57-5.07a53.67,53.67,0,0,1-.08-5.81,40.55,40.55,0,0,1,.62-5.7,37.77,37.77,0,0,1,2.44-8.09c.87-2,1.58-4.15,2.53-6.16A39.8,39.8,0,0,1,41,110.39a32.35,32.35,0,0,1,7-6.48c.71-.46,1.45-.85,2.2-1.24a1.05,1.05,0,0,1,1,0,11.21,11.21,0,0,1,2.93,1.91,24.51,24.51,0,0,1,5.38,7.13,44.4,44.4,0,0,1,4.12,12.17c.37,1.92.66,3.85.85,5.8.13,1.4.21,2.79.29,4.19.06,1,.09,2,.1,3.24A35.2,35.2,0,0,1,64.74,141.56Z" transform="translate(-3.05 -3.05)"/><path class="cls-2" d="M285.59,190.47l-.66-.63a10.18,10.18,0,0,1-1.92-2.31,35.53,35.53,0,0,1-2.05-4.15,17,17,0,0,1-1.11-3.24,32.56,32.56,0,0,0-1.12-4.12,24.65,24.65,0,0,1-1-4.06c-.23-1.33-.46-2.66-.71-4-.19-1-.4-1.17-1.41-1.15a9.14,9.14,0,0,0-3,.77c-1,.34-1.14.72-1,1.72,0,.07,0,.13.05.2.05.44.19.86.21,1.31a10.74,10.74,0,0,0,.47,2.82c.56,1.78,1,3.6,1.49,5.4.22.83.13.74-.48,1a7.29,7.29,0,0,0-3.18,2.32,18.8,18.8,0,0,0-2.12,3c-.93,1.74-1.57,3.6-2.37,5.39a24.93,24.93,0,0,1-1.16,2.31,1.21,1.21,0,0,1-.48-.59,24,24,0,0,1-1.59-3.81,47.15,47.15,0,0,1-1.46-6.19c-.36-2.1-.6-4.2-.76-6.31a42.55,42.55,0,0,1-.19-5c0-.88-.05-.9-.95-1a7.47,7.47,0,0,0-3.67,1,1,1,0,0,0-.57,1c0,1,0,1.91.11,2.87.09,1.51.07,3,0,4.56a8.32,8.32,0,0,1-.7,2.92,1.15,1.15,0,0,1-.71.7,19.57,19.57,0,0,0-3.81,1.95c-.39.25-.78.5-1.28.19a.94.94,0,0,0-.48,0,7.87,7.87,0,0,0-3,.61,26,26,0,0,0-4.46,2.79.77.77,0,0,1-.63.17,7.17,7.17,0,0,0-3.12.21,9.3,9.3,0,0,0-4,2.41,13.07,13.07,0,0,1-1.65,1.51.89.89,0,0,0-.36.43,12.36,12.36,0,0,0-.58,1.65,21.49,21.49,0,0,0-.28,4.46,9.54,9.54,0,0,0,.45,3.1,3.27,3.27,0,0,0,2.61,2.55,8.54,8.54,0,0,0,3.89-.3,13,13,0,0,0,6.57-4.69,6.44,6.44,0,0,0,1.22-4.37,8.49,8.49,0,0,0-1.33-4c-.27-.44-.56-.86-.86-1.28-.14-.19-.18-.33.07-.43a3.52,3.52,0,0,0,.87-.71c.41-.36.5-.35.64.18.32,1.17.62,2.34.93,3.52a57.05,57.05,0,0,0,1.52,5.74c.23.62.32.69.95.73a5.49,5.49,0,0,0,3.87-1.34c.41-.33.34-.66.24-1.06a15.48,15.48,0,0,1-.57-6,18.75,18.75,0,0,1,.74-3.48,5.31,5.31,0,0,1,1-1.84,4.12,4.12,0,0,1,3.18-1.35,4.26,4.26,0,0,1,.15.47,35.25,35.25,0,0,0,1.72,6.41,21.1,21.1,0,0,0,2,4c.89,1.39,1.89,1.65,3.5,1.45a9.93,9.93,0,0,0,3.6-1.49,3.41,3.41,0,0,0,1.64-1.45c.13-.27.35-.26.59-.13a4.27,4.27,0,0,0,1.1.46,7.22,7.22,0,0,0,3.86-.28,10.54,10.54,0,0,0,4.72-2.79c.34-.37.36-.36.72,0s.78.74,1.2,1.07a1.39,1.39,0,0,0,.91.32,8,8,0,0,0,3.95-1.29C286,191.05,286,190.91,285.59,190.47Zm-47.73,11.7a4.49,4.49,0,0,1-1,.69c-.24.15-.44,0-.63-.14a3.13,3.13,0,0,1-.85-1.27,8.72,8.72,0,0,1-.57-2.94c0-.84,0-1.69,0-2.53a7.76,7.76,0,0,1,1.75-4.26c.16-.22.32-.13.47,0a6.47,6.47,0,0,1,1.07,1.38,10.65,10.65,0,0,1,1.4,3.42,8.42,8.42,0,0,1,.08,1A6.22,6.22,0,0,1,237.86,202.17Zm37.29-14.24a6.8,6.8,0,0,1-.82,3.23c-.07.12-.13.25-.21.36-.25.35-.35.36-.66.07a2.89,2.89,0,0,1-.8-1.82,10.69,10.69,0,0,1,1.74-7.18.42.42,0,0,1,.33-.24A20.23,20.23,0,0,1,275.15,187.93Z" transform="translate(-3.05 -3.05)"/></svg>