<svg id="Layer_1" data-name="Layer 1" xmlns="http://www.w3.org/2000/svg" viewBox="0 0 293.9 293.9"><defs><style>.cls-1{fill:none;stroke:#ff9d00;stroke-miterlimit:10;stroke-width:8px;}.cls-2{fill:#ff9d00;}</style></defs><circle class="cls-1" cx="146.95" cy="146.95" r="142.95"/><path class="cls-2" d="M112.11,243.24c1.48-.55,3.21-1.2,5.27-1.87a197.69,197.69,0,0,1,20.35-5.09c4.43-.88,7.37-1.38,10-1.83l3-.53c8.22-1.47,15.64-3.48,31.64-7.87,5.07-1.39,8.86-2.47,12-3.35,7-2,10.46-3,16.9-4.24,4.52-.89,9.09-1.63,13.63-2.22a.52.52,0,0,0,.37-.81c-1.36-2-3-4.56-4.64-7.62-5.09-9.36-7-16.83-10.42-29.76-7.51-28.43-6.74-24.69-7.57-28.41a347,347,0,0,1-7.2-48.43.52.52,0,0,0-.32-.44l-4.86-2a.52.52,0,0,1-.09-.92l4.62-3.12-.82-7.29L179.36,81.8a.53.53,0,0,1,.06-1L193.75,77a.53.53,0,0,0,.39-.54c-.13-2.56-.27-5.13-.4-7.69a.53.53,0,0,0-.62-.49c-.38.07-.77.12-1.16.16a17.66,17.66,0,0,1-6.89-.7c-2.84-.86-10.88-.9-24.2-1-10.59-.06-20.51.06-28.69.33A83.81,83.81,0,0,0,109,70.53c-1.29.4-2.63.87-3.78,1.31C98.09,74.61,93.44,78,89,81.26l-.67.48L70.1,94.37l0,0-2.68,1.51-.25.16-.3.06A10.76,10.76,0,0,1,65,96.3,7.36,7.36,0,0,1,60.67,95c-2.5-1.76-2.82-4.55-3.31-8.78-.38-3.34-.78-6.8,1.46-9.8a9.28,9.28,0,0,1,2.41-2.21l.2-.12,8.79-2.29.57-.13c-.13-.79-.3-1.62-.51-2.48a32.85,32.85,0,0,0-1.24-4l-.38-1,3.52-2.62a.53.53,0,0,0-.17-.93l-4.46-1.29-.22-.79a29.2,29.2,0,0,0-5.92-11.37C59.74,45.29,59,45,58.51,45c-1.29,0-2.83,1.73-3.82,4.25a.53.53,0,0,1-.66.31l-.83-.3c0,.12-.06.22-.08.31a120.67,120.67,0,0,0-2.86,15.3c-.54,5.38-.81,8.06-.84,8.58A97.51,97.51,0,0,0,50.09,91c1.19,10.18,3,26,5.64,45.65a.53.53,0,0,0,.63.45,17.28,17.28,0,0,1,7.76.09.53.53,0,0,1,.3.83c-1.09,1.44-2.27,2.92-3.57,4.42-1.07,1.25-2.14,2.42-3.18,3.52a.47.47,0,0,0-.14.44c1.57,10,3.59,20.55,6.18,31.51a419.94,419.94,0,0,0,19.85,62,.52.52,0,0,0,.55.32L106,237.76a.52.52,0,0,1,.4.92l-16,13.49c.77,2.25.8,2.36,1.56,4.6l5,.24a.53.53,0,0,1,.36.89l-3.67,3.8a.52.52,0,0,0-.1.56,110.57,110.57,0,0,0,5.58,11.79c3.84,7,7.29,11.51,11.6,14.79,2.53,1.92,4.45,2.73,6.35,2.7a1.39,1.39,0,0,1,.76-.58,11.45,11.45,0,0,0,6.1-4.6c3.27-5.1.68-10.95.57-11.2a1.47,1.47,0,0,1,.49-1.81l6.24-4.47a.53.53,0,0,0-.22-.95l-6-1.1a1.94,1.94,0,0,1-1.61-1.85,19.59,19.59,0,0,0-.65-4.54,1.37,1.37,0,0,1-.69.28c-2.2.3-4.43.69-6.61,1.16a86.55,86.55,0,0,0-9.58,2.64,1.49,1.49,0,0,1-1.22-.12,1.45,1.45,0,0,1-.71-1,32.12,32.12,0,0,1,.18-11.41c1-3.18,1.82-5.71,4.2-7.21A27.62,27.62,0,0,1,112.11,243.24Z" transform="translate(-3.05 -3.05)"/><path class="cls-2" d="M70.74,74.79l-8,2.06-.19.08a6.23,6.23,0,0,0-1.35,1.31c-1.44,1.92-1.3,4.18-.89,7.69.46,4,.7,5.73,2.07,6.69a5,5,0,0,0,3.49.66.55.55,0,0,0,.25-.1,9.07,9.07,0,0,0,1-.78c3.86-3.53,4.07-9.15,4.23-13.25,0-1.13,0-2.27,0-2.27,0-.84-.08-1.59-.15-2.2Z" transform="translate(-3.05 -3.05)"/><path class="cls-2" d="M227.63,218.86c-8.61,1.54-6.51.61-15.86,2.51-2,.41-3.54.71-5.69,1.22-3.37.8-6.42,1.67-11,3-3.11.88-6.92,2-12,3.36-15,4.1-23.21,6.37-31.91,7.93l-3,.53c-2.58.44-5.5.95-9.9,1.82a158.68,158.68,0,0,0-20,5c-1.25.42-2.49.86-3.73,1.31a25.27,25.27,0,0,1,3.3,2.15,20.78,20.78,0,0,1,6.89,9.39l.25.66a23.63,23.63,0,0,1,1.32,6.37l9.92,1.8a1.49,1.49,0,0,1,.6,2.67l-9.16,6.56c.8,2.37,2,7.81-1.21,12.87a15.46,15.46,0,0,1-1.1,1.46c.88-.18,1.6-.3,2.2-.41,4.14-.77,18.6-4.13,39.85-9.58,30.51-7.84,24.65-7.06,33.62-8.91,12.95-2.67,25.65-7,38.83-8.07a7.25,7.25,0,0,0,2.19-.51,8.17,8.17,0,0,0,3.36-2.69,25.17,25.17,0,0,0,4.71-13.61,28.21,28.21,0,0,0-1.52-11.44,26.29,26.29,0,0,0-3.19-6q-4.77.43-9.58.84c-2.76.23-5.51.46-8.24.67a38,38,0,0,1,5-5.21,37.51,37.51,0,0,1,5.22-3.7,12.49,12.49,0,0,0-4.54-2A13.69,13.69,0,0,0,227.63,218.86Z" transform="translate(-3.05 -3.05)"/><path class="cls-2" d="M109.54,247.49c-1.39.62-1.92,2.75-2.53,5.23a22.31,22.31,0,0,0-.43,8.45c2.72-.86,5.49-1.59,8.26-2.19,2.25-.48,4.56-.89,6.84-1.2h.19a17.71,17.71,0,0,0-5.75-7.75c-1.27-.93-3.69-2.72-5.6-2.72A2.45,2.45,0,0,0,109.54,247.49Z" transform="translate(-3.05 -3.05)"/><path class="cls-2" d="M198,64.24c2.53-.64,4.17-2.76,5.55-4.54a18.82,18.82,0,0,0,3.47-9c0-.4,0-.72.06-.94a17.27,17.27,0,0,0-.39-4.38.72.72,0,0,0-.59-.57l-7-1.09a.71.71,0,0,1-.21-1.35l5-2.46c-.56-2.61-.48-2.26-1-4.87L193,34.75a.72.72,0,0,1-.28-1.37l9.66-4.52a.72.72,0,0,0,.39-.85c-.83-2.73-2.53-6.36-6.05-8.49-3-1.8-6.08-1.7-12.27-1.51a82.22,82.22,0,0,0-11.6,1.34c-5,.81-6.77,1.31-10.6,2-3.59.67-5.77.92-16.14,2-19.1,2-18.84,1.93-21.68,2.35-2.68.4-9.23,1.44-17.49,3.36-2.63.62-3.09.78-17.82,4.71-8.22,2.2-6.56,1.77-12.44,3.36-4.94,1.34-9.65,3.39-14.44,5.21a.72.72,0,0,0-.2,1.23,15.33,15.33,0,0,1,1.64,1.67,31.64,31.64,0,0,1,6.18,11.34.72.72,0,0,0,.48.48l7.89,2.28a.72.72,0,0,1,.23,1.27L72.61,65a.71.71,0,0,0-.25.8,38.78,38.78,0,0,1,1.91,13.49,37.29,37.29,0,0,1-.9,7.8.72.72,0,0,0,1.1.79c4.23-2.89,8.27-5.74,12.07-8.5l.67-.49c4.64-3.38,9.45-6.88,17-9.78,1.2-.47,2.61-1,4-1.38a86.26,86.26,0,0,1,23.93-3.6c8.22-.27,18.18-.39,28.81-.33,15.49.08,21.9.15,25,1.07a13.15,13.15,0,0,0,5.81.62l2.22-.41C196.43,64.56,197.7,64.32,198,64.24Z" transform="translate(-3.05 -3.05)"/></svg>